<svg width="65" height="64" viewBox="0 0 65 64" fill="none" xmlns="http://www.w3.org/2000/svg">
<rect x="0.333496" width="64" height="64" rx="20" fill="white"/>
<path d="M17.8828 24.5791C18.4361 23.8848 18.8116 22.9526 18.7126 22C17.9026 22.0404 16.9141 22.5361 16.3418 23.2309C15.828 23.8259 15.3732 24.7972 15.4917 25.7098C16.401 25.789 17.3095 25.2539 17.8828 24.5791Z" fill="#131313"/>
<path d="M18.7023 25.8881C17.3818 25.8092 16.259 26.6399 15.6284 26.6399C14.9975 26.6399 14.0318 25.9278 12.9873 25.947C11.6279 25.967 10.3665 26.7381 9.67667 27.9644C8.25777 30.4176 9.30222 34.0566 10.682 36.0546C11.3521 37.043 12.1596 38.1314 13.2237 38.0923C14.2291 38.0527 14.6231 37.4393 15.8452 37.4393C17.0663 37.4393 17.4213 38.0923 18.4855 38.0725C19.5892 38.0527 20.2792 37.0836 20.9492 36.0941C21.7179 34.9673 22.0326 33.8793 22.0524 33.8196C22.0326 33.7998 19.9242 32.9884 19.9047 30.5556C19.8848 28.5186 21.56 27.5497 21.6388 27.4896C20.6928 26.0861 19.2147 25.9278 18.7023 25.8881Z" fill="#131313"/>
<path d="M30.2003 23.1313C33.0704 23.1313 35.0689 25.1158 35.0689 28.0052C35.0689 30.905 33.0293 32.8998 30.1283 32.8998H26.9505V37.9692H24.6546V23.1313L30.2003 23.1313ZM26.9505 30.9666H29.585C31.5839 30.9666 32.7216 29.8871 32.7216 28.0155C32.7216 26.1442 31.5839 25.0748 29.5952 25.0748H26.9505V30.9666Z" fill="#131313"/>
<path d="M35.6688 34.8947C35.6688 33.0026 37.1141 31.8407 39.677 31.6967L42.6289 31.522V30.6891C42.6289 29.486 41.8191 28.7662 40.4663 28.7662C39.1846 28.7662 38.3851 29.3831 38.1905 30.3498H36.0994C36.2224 28.3959 37.8829 26.9564 40.5481 26.9564C43.162 26.9564 44.8327 28.3446 44.8327 30.5142V37.9692H42.7108V36.1903H42.6598C42.0346 37.3934 40.6711 38.1542 39.2566 38.1542C37.145 38.1542 35.6688 36.838 35.6688 34.8947ZM42.6289 33.9179V33.0644L39.9739 33.2289C38.6516 33.3215 37.9034 33.9076 37.9034 34.833C37.9034 35.7789 38.6824 36.3959 39.8715 36.3959C41.4193 36.3959 42.6289 35.3265 42.6289 33.9179Z" fill="#131313"/>
<path d="M46.836 41.9486V40.1491C46.9998 40.1902 47.3687 40.1902 47.5534 40.1902C48.5784 40.1902 49.132 39.7584 49.4701 38.6479C49.4701 38.6272 49.665 37.9898 49.665 37.9795L45.7699 27.1517H48.1683L50.8952 35.9538H50.936L53.6629 27.1517H56L51.961 38.5346C51.0388 41.1569 49.9727 42 47.738 42C47.5534 42 46.9998 41.9794 46.836 41.9486Z" fill="#131313"/>
</svg>
