<svg width="64" height="64" viewBox="0 0 64 64" fill="none" xmlns="http://www.w3.org/2000/svg">
<rect width="64" height="64" rx="20" fill="white"/>
<path d="M38 37.5C38 37.7967 37.912 38.0867 37.7472 38.3334C37.5824 38.58 37.3481 38.7723 37.074 38.8858C36.7999 38.9993 36.4983 39.0291 36.2074 38.9712C35.9164 38.9133 35.6491 38.7704 35.4393 38.5607C35.2296 38.3509 35.0867 38.0836 35.0288 37.7926C34.9709 37.5017 35.0007 37.2001 35.1142 36.926C35.2277 36.6519 35.42 36.4176 35.6666 36.2528C35.9133 36.088 36.2033 36 36.5 36C36.8978 36 37.2794 36.158 37.5607 36.4393C37.842 36.7206 38 37.1022 38 37.5ZM27.5 28C27.7967 28 28.0867 27.912 28.3334 27.7472C28.58 27.5824 28.7723 27.3481 28.8858 27.074C28.9994 26.7999 29.0291 26.4983 28.9712 26.2074C28.9133 25.9164 28.7704 25.6491 28.5607 25.4393C28.3509 25.2296 28.0836 25.0867 27.7926 25.0288C27.5017 24.9709 27.2001 25.0006 26.926 25.1142C26.6519 25.2277 26.4176 25.42 26.2528 25.6666C26.088 25.9133 26 26.2033 26 26.5C26 26.8978 26.158 27.2794 26.4393 27.5607C26.7206 27.842 27.1022 28 27.5 28ZM44 22V42C44 42.5304 43.7893 43.0391 43.4142 43.4142C43.0391 43.7893 42.5304 44 42 44H22C21.4696 44 20.9609 43.7893 20.5858 43.4142C20.2107 43.0391 20 42.5304 20 42V22C20 21.4696 20.2107 20.9609 20.5858 20.5858C20.9609 20.2107 21.4696 20 22 20H42C42.5304 20 43.0391 20.2107 43.4142 20.5858C43.7893 20.9609 44 21.4696 44 22ZM24 26.5C24 27.1922 24.2053 27.8689 24.5899 28.4445C24.9744 29.0201 25.5211 29.4687 26.1606 29.7336C26.8001 29.9985 27.5039 30.0678 28.1828 29.9327C28.8617 29.7977 29.4854 29.4644 29.9749 28.9749C30.4644 28.4854 30.7977 27.8618 30.9327 27.1828C31.0678 26.5039 30.9985 25.8001 30.7336 25.1606C30.4687 24.5211 30.0201 23.9744 29.4445 23.5899C28.8689 23.2053 28.1922 23 27.5 23C26.5717 23 25.6815 23.3687 25.0251 24.0251C24.3687 24.6815 24 25.5717 24 26.5ZM40 37.5C40 36.8078 39.7947 36.1311 39.4101 35.5555C39.0256 34.9799 38.4789 34.5313 37.8394 34.2664C37.1999 34.0015 36.4961 33.9322 35.8172 34.0673C35.1383 34.2023 34.5146 34.5356 34.0251 35.0251C33.5356 35.5146 33.2023 36.1383 33.0673 36.8172C32.9322 37.4961 33.0015 38.1999 33.2664 38.8394C33.5313 39.4789 33.9799 40.0256 34.5555 40.4101C35.1311 40.7947 35.8078 41 36.5 41C37.4283 41 38.3185 40.6313 38.9749 39.9749C39.6313 39.3185 40 38.4283 40 37.5ZM39.7075 24.2925C39.6146 24.1995 39.5043 24.1258 39.3829 24.0754C39.2615 24.0251 39.1314 23.9992 39 23.9992C38.8686 23.9992 38.7385 24.0251 38.6171 24.0754C38.4957 24.1258 38.3854 24.1995 38.2925 24.2925L24.2925 38.2925C24.1049 38.4801 23.9994 38.7346 23.9994 39C23.9994 39.2654 24.1049 39.5199 24.2925 39.7075C24.4801 39.8951 24.7346 40.0006 25 40.0006C25.2654 40.0006 25.5199 39.8951 25.7075 39.7075L39.7075 25.7075C39.8005 25.6146 39.8742 25.5043 39.9246 25.3829C39.9749 25.2615 40.0008 25.1314 40.0008 25C40.0008 24.8686 39.9749 24.7385 39.9246 24.6171C39.8742 24.4957 39.8005 24.3854 39.7075 24.2925Z" fill="#6799E3"/>
</svg>
