<svg width="64" height="64" viewBox="0 0 64 64" fill="none" xmlns="http://www.w3.org/2000/svg">
<rect width="64" height="64" rx="20" fill="white"/>
<g clip-path="url(#clip0_6063_3891)">
<path d="M13.8728 40.3208L26.4888 18.1787C28.0914 19.1459 36.1723 23.7306 37.4774 24.6026L24.8614 46.7459C23.4816 48.6146 12.1248 43.1565 13.8728 40.3196V40.3208Z" fill="#FBBC04"/>
<path d="M50.1212 40.322L37.5052 18.1813C35.7415 15.1723 31.943 14.0787 28.823 15.856C25.703 17.6332 24.753 21.4616 26.5167 24.6051L39.1327 46.7485C40.8964 49.7562 44.6951 50.8496 47.8151 49.0725C50.7987 47.2951 51.885 43.331 50.1212 40.3246V40.322Z" fill="#4285F4"/>
<path d="M19.3343 49.9273C22.8319 49.9273 25.6672 47.0928 25.6672 43.5963C25.6672 40.0998 22.8319 37.2653 19.3343 37.2653C15.8367 37.2653 13.0013 40.0998 13.0013 43.5963C13.0013 47.0928 15.8367 49.9273 19.3343 49.9273Z" fill="#34A853"/>
</g>
<defs>
<clipPath id="clip0_6063_3891">
<rect width="38" height="35" fill="white" transform="translate(13 15)"/>
</clipPath>
</defs>
</svg>
