<svg width="65" height="64" viewBox="0 0 65 64" fill="none" xmlns="http://www.w3.org/2000/svg">
<rect x="0.666748" width="64" height="64" rx="20" fill="white"/>
<path d="M53.3961 36.8739L51.3908 38.4879L49.391 37.0098C49.391 36.8545 49.391 36.6895 49.3819 36.5246C49.3819 36.3693 49.3819 36.2043 49.3727 36.0393C49.2447 32.2156 48.3303 28.1201 46.5015 25.1213C45.0933 22.8212 43.2919 21.7246 41.2802 21.7246C39.1679 21.7246 37.4488 23.0638 35.5468 25.9753C35.492 26.0627 35.428 26.15 35.3731 26.2471C35.3365 26.2956 35.3091 26.3441 35.2725 26.4023C35.1811 26.5479 35.0896 26.6935 34.9982 26.8488C34.1752 28.2075 33.3157 29.7894 32.383 31.5362C32.3007 31.7012 32.2092 31.8662 32.1269 32.0312C32.0995 32.07 32.0721 32.1185 32.0538 32.1574L31.8618 32.5164L30.7279 34.6418C28.067 39.6398 27.3903 40.785 26.0644 42.6581C23.7327 45.948 21.7392 47.2 19.1149 47.2C16.0059 47.2 14.0308 45.7734 12.8146 43.6189C11.8179 41.872 11.3333 39.5719 11.3333 36.9516L15.8779 37.1166C15.8779 38.8246 16.2253 40.1251 16.6917 40.9209C17.2952 41.9496 18.1822 42.3475 19.1057 42.3475C20.2853 42.3475 21.3826 42.0855 23.4675 39.0187C25.1409 36.5634 27.116 33.1278 28.4419 30.9636L29.6946 28.9353L29.9598 28.4889L30.2341 28.0522L30.6913 27.3049C31.3863 26.1791 32.1361 24.9854 32.9408 23.8402C33.0322 23.7044 33.1237 23.5685 33.2242 23.4326C33.3157 23.2968 33.4163 23.1609 33.5077 23.0347C34.3307 21.9187 35.1994 20.8802 36.1321 20.0262C37.8237 18.4637 39.6434 17.6 41.4814 17.6C44.5629 17.6 47.4982 19.4924 49.7476 23.0444C52.0428 26.6741 53.2407 31.1966 53.3779 35.9035C53.387 36.0587 53.387 36.2237 53.387 36.3887C53.3961 36.5537 53.3961 36.709 53.3961 36.8739Z" fill="#0081FB"/>
<path d="M14.9165 23.3802C16.9986 19.9787 20.0052 17.6 23.4525 17.6C25.4496 17.6 27.4339 18.2259 29.5068 20.0194C31.7737 21.9798 34.1905 25.2077 37.2053 30.5279L38.2861 32.4369C40.8958 37.0428 42.3799 39.4118 43.2495 40.5298C44.3669 41.9651 45.0646 42.3475 46.0814 42.3475C48.6601 42.3475 49.3889 39.8825 49.3889 37.0088L53.3967 36.8759C53.3967 39.8796 52.838 42.0865 51.887 43.8295C50.969 45.5152 49.1786 47.2 46.1665 47.2C44.2938 47.2 42.635 46.7691 40.8007 44.9358C39.3907 43.5286 37.742 41.0286 36.4737 38.7819L32.7009 32.1059C30.808 28.7558 29.0716 26.2568 28.0666 25.1261C26.9858 23.9091 25.6508 22.4534 23.4333 22.4534C21.6383 22.4534 20.0601 23.7752 18.7845 25.8162L14.9165 23.3802Z" fill="url(#paint0_linear_6063_3917)"/>
<path d="M23.4492 22.4524C21.6579 22.4524 20.0814 23.7742 18.8086 25.8152C17.0081 28.6995 15.9053 32.9949 15.9053 37.1205C15.9053 38.8217 15.9026 40.1018 16.3625 40.8918L12.8512 43.6218C11.8581 41.8691 11.3333 39.6301 11.3333 37.0098C11.3333 32.2447 12.5723 27.2166 14.9159 23.3802C16.9953 19.9787 20.0266 17.6 23.4675 17.6L23.4492 22.4524Z" fill="url(#paint1_linear_6063_3917)"/>
<path opacity="0.05" d="M30.2343 28.053L29.96 28.4897L29.6948 28.9361C30.3441 29.9357 31.0847 31.1391 31.862 32.5172L32.054 32.1581C32.0723 32.1193 32.0997 32.0708 32.1272 32.032C32.2095 31.867 32.3009 31.702 32.3832 31.537C31.6242 30.2172 30.8927 29.0429 30.2343 28.053ZM33.2245 23.4334C33.1239 23.5693 33.0324 23.7052 32.941 23.841C33.6085 24.7242 34.2852 25.7238 34.9984 26.8496C35.0898 26.6943 35.1813 26.5487 35.2727 26.4031C35.3093 26.3449 35.3367 26.2964 35.3733 26.2478C35.4282 26.1508 35.4922 26.0635 35.5471 25.9761C34.8521 24.8892 34.1754 23.909 33.5079 23.0355C33.4165 23.1617 33.3159 23.2976 33.2245 23.4334Z" fill="#131313"/>
<path opacity="0.07" d="M30.2321 28.0518L29.9578 28.4885C30.607 29.4784 31.3385 30.6624 32.1249 32.0308C32.2072 31.8658 32.2987 31.7008 32.381 31.5359C31.622 30.216 30.8905 29.0417 30.2321 28.0518ZM32.9387 23.8399C33.6063 24.723 34.2829 25.7226 34.9962 26.8484C35.0876 26.6931 35.179 26.5475 35.2705 26.402C34.5664 25.2956 33.8806 24.3057 33.2222 23.4323C33.1216 23.5681 33.0302 23.704 32.9387 23.8399Z" fill="#131313"/>
<defs>
<linearGradient id="paint0_linear_6063_3917" x1="49.1027" y1="32.4" x2="22.7942" y2="32.4" gradientUnits="userSpaceOnUse">
<stop stop-color="#0081FB"/>
<stop offset="0.995" stop-color="#0064E1"/>
</linearGradient>
<linearGradient id="paint1_linear_6063_3917" x1="17.4004" y1="40.2804" x2="17.4004" y2="21.0083" gradientUnits="userSpaceOnUse">
<stop stop-color="#0081FB"/>
<stop offset="0.995" stop-color="#0064E1"/>
</linearGradient>
</defs>
</svg>
