<svg width="48" height="48" viewBox="0 0 48 48" fill="none" xmlns="http://www.w3.org/2000/svg">
<rect width="48" height="48" rx="16" fill="#F8F8F8"/>
<path d="M35.375 24.0001V32.7501C35.375 33.9104 34.9141 35.0232 34.0936 35.8437C33.2731 36.6642 32.1603 37.1251 31 37.1251H24.875C24.6429 37.1251 24.4204 37.0329 24.2563 36.8688C24.0922 36.7048 24 36.4822 24 36.2501C24 36.0181 24.0922 35.7955 24.2563 35.6314C24.4204 35.4673 24.6429 35.3751 24.875 35.3751H31C31.6962 35.3751 32.3639 35.0986 32.8562 34.6063C33.3484 34.114 33.625 33.4463 33.625 32.7501H31C30.3038 32.7501 29.6361 32.4736 29.1438 31.9813C28.6516 31.489 28.375 30.8213 28.375 30.1251V25.7501C28.375 25.0539 28.6516 24.3863 29.1438 23.894C29.6361 23.4017 30.3038 23.1251 31 23.1251H33.5867C33.4211 21.3062 32.7414 19.5718 31.6269 18.1248C30.5125 16.6777 29.0092 15.5776 27.2929 14.953C25.5765 14.3284 23.7178 14.205 21.934 14.5973C20.1501 14.9897 18.5147 15.8815 17.2187 17.1686C15.6073 18.7588 14.6134 20.8699 14.4144 23.1251H17C17.6962 23.1251 18.3639 23.4017 18.8562 23.894C19.3484 24.3863 19.625 25.0539 19.625 25.7501V30.1251C19.625 30.8213 19.3484 31.489 18.8562 31.9813C18.3639 32.4736 17.6962 32.7501 17 32.7501H15.25C14.5538 32.7501 13.8861 32.4736 13.3938 31.9813C12.9016 31.489 12.625 30.8213 12.625 30.1251V24.0001C12.6275 21.7469 13.2983 19.545 14.5527 17.6733C15.8071 15.8015 17.5887 14.3439 19.6718 13.4851C21.7549 12.6263 24.0461 12.4048 26.2551 12.8486C28.4642 13.2925 30.492 14.3818 32.0817 15.9786C33.1313 17.0333 33.9625 18.2847 34.5276 19.6612C35.0927 21.0377 35.3807 22.5122 35.375 24.0001Z" fill="#527AB6"/>
</svg>
