<svg width="32" height="32" viewBox="0 0 32 32" fill="none" xmlns="http://www.w3.org/2000/svg">
<rect width="32" height="32" rx="10" fill="white"/>
<path d="M22.6922 12.4328L18.3172 8.05781C18.2591 7.99979 18.1902 7.95378 18.1143 7.92241C18.0384 7.89105 17.9571 7.87494 17.875 7.875H10.375C10.0435 7.875 9.72554 8.0067 9.49112 8.24112C9.2567 8.47554 9.125 8.79348 9.125 9.125V22.875C9.125 23.2065 9.2567 23.5245 9.49112 23.7589C9.72554 23.9933 10.0435 24.125 10.375 24.125H21.625C21.9565 24.125 22.2745 23.9933 22.5089 23.7589C22.7433 23.5245 22.875 23.2065 22.875 22.875V12.875C22.8751 12.7929 22.859 12.7116 22.8276 12.6357C22.7962 12.5598 22.7502 12.4909 22.6922 12.4328ZM18.3172 19.3078C18.3753 19.3659 18.4213 19.4348 18.4527 19.5107C18.4842 19.5866 18.5003 19.6679 18.5003 19.75C18.5003 19.8321 18.4842 19.9134 18.4527 19.9893C18.4213 20.0652 18.3753 20.1341 18.3172 20.1922C18.2591 20.2503 18.1902 20.2963 18.1143 20.3277C18.0384 20.3592 17.9571 20.3753 17.875 20.3753C17.7929 20.3753 17.7116 20.3592 17.6357 20.3277C17.5598 20.2963 17.4909 20.2503 17.4328 20.1922L16 18.7586L14.5672 20.1922C14.5091 20.2503 14.4402 20.2963 14.3643 20.3277C14.2884 20.3592 14.2071 20.3753 14.125 20.3753C14.0429 20.3753 13.9616 20.3592 13.8857 20.3277C13.8098 20.2963 13.7409 20.2503 13.6828 20.1922C13.6247 20.1341 13.5787 20.0652 13.5473 19.9893C13.5158 19.9134 13.4997 19.8321 13.4997 19.75C13.4997 19.6679 13.5158 19.5866 13.5473 19.5107C13.5787 19.4348 13.6247 19.3659 13.6828 19.3078L15.1164 17.875L13.6828 16.4422C13.5655 16.3249 13.4997 16.1659 13.4997 16C13.4997 15.8341 13.5655 15.6751 13.6828 15.5578C13.8001 15.4405 13.9591 15.3747 14.125 15.3747C14.2909 15.3747 14.4499 15.4405 14.5672 15.5578L16 16.9914L17.4328 15.5578C17.4909 15.4997 17.5598 15.4537 17.6357 15.4223C17.7116 15.3908 17.7929 15.3747 17.875 15.3747C17.9571 15.3747 18.0384 15.3908 18.1143 15.4223C18.1902 15.4537 18.2591 15.4997 18.3172 15.5578C18.3753 15.6159 18.4213 15.6848 18.4527 15.7607C18.4842 15.8366 18.5003 15.9179 18.5003 16C18.5003 16.0821 18.4842 16.1634 18.4527 16.2393C18.4213 16.3152 18.3753 16.3841 18.3172 16.4422L16.8836 17.875L18.3172 19.3078ZM17.875 12.875V9.4375L21.3125 12.875H17.875Z" fill="#6799E3"/>
</svg>
