<svg width="48" height="48" viewBox="0 0 48 48" fill="none" xmlns="http://www.w3.org/2000/svg">
<rect width="48" height="48" rx="16" fill="#F8F8F8"/>
<path d="M33.3691 19.0059L27.2441 12.8809C27.1627 12.7997 27.0662 12.7353 26.96 12.6914C26.8538 12.6475 26.7399 12.6249 26.625 12.625H16.125C15.6609 12.625 15.2158 12.8094 14.8876 13.1376C14.5594 13.4658 14.375 13.9109 14.375 14.375V33.625C14.375 34.0891 14.5594 34.5342 14.8876 34.8624C15.2158 35.1906 15.6609 35.375 16.125 35.375H31.875C32.3391 35.375 32.7842 35.1906 33.1124 34.8624C33.4406 34.5342 33.625 34.0891 33.625 33.625V19.625C33.6251 19.5101 33.6025 19.3962 33.5586 19.29C33.5147 19.1838 33.4503 19.0873 33.3691 19.0059ZM27.2441 28.6309C27.3254 28.7122 27.3898 28.8087 27.4338 28.915C27.4778 29.0212 27.5005 29.135 27.5005 29.25C27.5005 29.365 27.4778 29.4788 27.4338 29.585C27.3898 29.6913 27.3254 29.7878 27.2441 29.8691C27.1628 29.9504 27.0663 30.0148 26.96 30.0588C26.8538 30.1028 26.74 30.1255 26.625 30.1255C26.51 30.1255 26.3962 30.1028 26.29 30.0588C26.1837 30.0148 26.0872 29.9504 26.0059 29.8691L24 27.862L21.9941 29.8691C21.9128 29.9504 21.8163 30.0148 21.71 30.0588C21.6038 30.1028 21.49 30.1255 21.375 30.1255C21.26 30.1255 21.1462 30.1028 21.04 30.0588C20.9337 30.0148 20.8372 29.9504 20.7559 29.8691C20.6746 29.7878 20.6102 29.6913 20.5662 29.585C20.5222 29.4788 20.4995 29.365 20.4995 29.25C20.4995 29.135 20.5222 29.0212 20.5662 28.915C20.6102 28.8087 20.6746 28.7122 20.7559 28.6309L22.763 26.625L20.7559 24.6191C20.5918 24.4549 20.4995 24.2322 20.4995 24C20.4995 23.7678 20.5918 23.5451 20.7559 23.3809C20.9201 23.2168 21.1428 23.1245 21.375 23.1245C21.6072 23.1245 21.8299 23.2168 21.9941 23.3809L24 25.388L26.0059 23.3809C26.0872 23.2996 26.1837 23.2352 26.29 23.1912C26.3962 23.1472 26.51 23.1245 26.625 23.1245C26.74 23.1245 26.8538 23.1472 26.96 23.1912C27.0663 23.2352 27.1628 23.2996 27.2441 23.3809C27.3254 23.4622 27.3898 23.5587 27.4338 23.665C27.4778 23.7712 27.5005 23.885 27.5005 24C27.5005 24.115 27.4778 24.2288 27.4338 24.335C27.3898 24.4413 27.3254 24.5378 27.2441 24.6191L25.237 26.625L27.2441 28.6309ZM26.625 19.625V14.8125L31.4375 19.625H26.625Z" fill="#527AB6"/>
</svg>
