<svg width="32" height="32" viewBox="0 0 32 32" fill="none" xmlns="http://www.w3.org/2000/svg">
<rect width="32" height="32" rx="10" fill="white"/>
<path d="M20.375 12.9977V12.5625C20.375 10.6031 17.4195 9.125 13.5 9.125C9.58047 9.125 6.625 10.6031 6.625 12.5625V15.6875C6.625 17.3195 8.67578 18.6164 11.625 19.0047V19.4375C11.625 21.3969 14.5805 22.875 18.5 22.875C22.4195 22.875 25.375 21.3969 25.375 19.4375V16.3125C25.375 14.6953 23.3891 13.3969 20.375 12.9977ZM10.375 17.4742C8.84453 17.0469 7.875 16.343 7.875 15.6875V14.5883C8.5125 15.0398 9.36641 15.4039 10.375 15.6484V17.4742ZM16.625 15.6484C17.6336 15.4039 18.4875 15.0398 19.125 14.5883V15.6875C19.125 16.343 18.1555 17.0469 16.625 17.4742V15.6484ZM15.375 21.2242C13.8445 20.7969 12.875 20.093 12.875 19.4375V19.1117C13.0805 19.1195 13.2883 19.125 13.5 19.125C13.8031 19.125 14.0992 19.1148 14.3898 19.0977C14.7127 19.2132 15.0416 19.3113 15.375 19.3914V21.2242ZM15.375 17.7383C14.7542 17.83 14.1275 17.8757 13.5 17.875C12.8725 17.8757 12.2458 17.83 11.625 17.7383V15.8797C12.2467 15.9607 12.873 16.0009 13.5 16C14.127 16.0009 14.7533 15.9607 15.375 15.8797V17.7383ZM20.375 21.4883C19.1316 21.6706 17.8684 21.6706 16.625 21.4883V19.625C17.2465 19.7085 17.8729 19.7503 18.5 19.75C19.127 19.7509 19.7533 19.7107 20.375 19.6297V21.4883ZM24.125 19.4375C24.125 20.093 23.1555 20.7969 21.625 21.2242V19.3984C22.6336 19.1539 23.4875 18.7898 24.125 18.3383V19.4375Z" fill="#6799E3"/>
</svg>
