<svg width="48" height="48" viewBox="0 0 48 48" fill="none" xmlns="http://www.w3.org/2000/svg">
<rect width="48" height="48" rx="16" fill="#F8F8F8"/>
<path d="M32.75 20.5C32.75 20.2405 32.827 19.9867 32.9712 19.7709C33.1154 19.555 33.3204 19.3868 33.5602 19.2875C33.8 19.1881 34.0639 19.1621 34.3185 19.2128C34.5731 19.2634 34.807 19.3884 34.9906 19.572C35.1741 19.7555 35.2991 19.9894 35.3498 20.244C35.4004 20.4986 35.3744 20.7625 35.2751 21.0023C35.1757 21.2421 35.0075 21.4471 34.7917 21.5913C34.5758 21.7356 34.3221 21.8125 34.0625 21.8125C33.7144 21.8125 33.3805 21.6743 33.1344 21.4281C32.8883 21.182 32.75 20.8481 32.75 20.5ZM31.4375 17.875C31.6971 17.875 31.9508 17.7981 32.1667 17.6538C32.3825 17.5096 32.5507 17.3046 32.6501 17.0648C32.7494 16.825 32.7754 16.5611 32.7248 16.3065C32.6741 16.0519 32.5491 15.818 32.3656 15.6345C32.182 15.4509 31.9481 15.3259 31.6935 15.2753C31.4389 15.2246 31.175 15.2506 30.9352 15.35C30.6954 15.4493 30.4904 15.6175 30.3462 15.8334C30.202 16.0492 30.125 16.303 30.125 16.5625C30.125 16.9106 30.2633 17.2445 30.5094 17.4906C30.7555 17.7368 31.0894 17.875 31.4375 17.875ZM34.5722 24C34.341 23.981 34.1117 24.0545 33.9347 24.2044C33.7577 24.3543 33.6475 24.5684 33.6283 24.7996C33.4717 26.6288 32.7959 28.3753 31.6804 29.8335C30.5649 31.2917 29.0561 32.401 27.3316 33.0308C25.6071 33.6606 23.7385 33.7848 21.9458 33.3887C20.1531 32.9925 18.5108 32.0927 17.2122 30.7949C15.9136 29.4971 15.0127 27.8553 14.6154 26.0629C14.2182 24.2704 14.3412 22.4018 14.9699 20.6769C15.5986 18.952 16.707 17.4425 18.1645 16.3261C19.622 15.2097 21.368 14.5328 23.1972 14.375C23.3121 14.3656 23.424 14.3335 23.5265 14.2808C23.6291 14.2281 23.7202 14.1557 23.7947 14.0677C23.8693 13.9798 23.9258 13.878 23.961 13.7682C23.9962 13.6584 24.0095 13.5428 24 13.4279C23.9905 13.3129 23.9585 13.201 23.9058 13.0985C23.853 12.996 23.7806 12.9048 23.6927 12.8303C23.6047 12.7557 23.5029 12.6992 23.3931 12.664C23.2833 12.6288 23.1677 12.6156 23.0528 12.625C20.8916 12.8109 18.8284 13.6102 17.106 14.9289C15.3836 16.2475 14.0737 18.0306 13.3303 20.0685C12.5869 22.1063 12.4409 24.3141 12.9097 26.432C13.3784 28.55 14.4423 30.49 15.9761 32.0239C17.51 33.5577 19.45 34.6216 21.568 35.0903C23.6859 35.5591 25.8937 35.4132 27.9315 34.6698C29.9694 33.9264 31.7525 32.6164 33.0712 30.894C34.3898 29.1716 35.1891 27.1085 35.375 24.9472C35.3849 24.8322 35.3719 24.7164 35.3368 24.6065C35.3018 24.4965 35.2453 24.3946 35.1707 24.3066C35.0961 24.2185 35.0048 24.1461 34.9021 24.0935C34.7993 24.0409 34.6872 24.0091 34.5722 24ZM24 16.125C25.5575 16.125 27.0801 16.5869 28.3751 17.4522C29.6701 18.3175 30.6795 19.5474 31.2755 20.9864C31.8716 22.4254 32.0275 24.0088 31.7237 25.5364C31.4198 27.064 30.6698 28.4672 29.5684 29.5685C28.4671 30.6698 27.0639 31.4199 25.5363 31.7237C24.0087 32.0276 22.4253 31.8716 20.9863 31.2756C19.5474 30.6796 18.3175 29.6702 17.4522 28.3752C16.5868 27.0801 16.125 25.5576 16.125 24C16.1273 21.9122 16.9577 19.9105 18.4341 18.4341C19.9104 16.9578 21.9121 16.1274 24 16.125ZM23.125 24C23.125 24.2321 23.2172 24.4547 23.3813 24.6188C23.5454 24.7829 23.7679 24.875 24 24.875H29.25C29.482 24.875 29.7046 24.7829 29.8687 24.6188C30.0328 24.4547 30.125 24.2321 30.125 24C30.125 23.768 30.0328 23.5454 29.8687 23.3813C29.7046 23.2172 29.482 23.125 29.25 23.125H24.875V18.75C24.875 18.518 24.7828 18.2954 24.6187 18.1313C24.4546 17.9672 24.232 17.875 24 17.875C23.7679 17.875 23.5454 17.9672 23.3813 18.1313C23.2172 18.2954 23.125 18.518 23.125 18.75V24ZM27.5 15.25C27.7596 15.25 28.0133 15.1731 28.2292 15.0288C28.445 14.8846 28.6132 14.6796 28.7126 14.4398C28.8119 14.2 28.8379 13.9361 28.7873 13.6815C28.7366 13.4269 28.6116 13.193 28.4281 13.0095C28.2445 12.8259 28.0106 12.7009 27.756 12.6503C27.5014 12.5996 27.2375 12.6256 26.9977 12.725C26.7579 12.8243 26.5529 12.9925 26.4087 13.2084C26.2645 13.4242 26.1875 13.678 26.1875 13.9375C26.1875 14.2856 26.3258 14.6195 26.5719 14.8656C26.818 15.1118 27.1519 15.25 27.5 15.25Z" fill="#527AB6"/>
</svg>
