<svg width="48" height="48" viewBox="0 0 48 48" fill="none" xmlns="http://www.w3.org/2000/svg">
<rect width="48" height="48" rx="16" fill="#F8F8F8"/>
<path d="M15.25 18.7502V29.2502C15.25 29.4823 15.1578 29.7048 14.9937 29.8689C14.8296 30.033 14.6071 30.1252 14.375 30.1252C14.1429 30.1252 13.9204 30.033 13.7563 29.8689C13.5922 29.7048 13.5 29.4823 13.5 29.2502V18.7502C13.5 18.5181 13.5922 18.2956 13.7563 18.1315C13.9204 17.9674 14.1429 17.8752 14.375 17.8752C14.6071 17.8752 14.8296 17.9674 14.9937 18.1315C15.1578 18.2956 15.25 18.5181 15.25 18.7502ZM17.875 17.8752C17.6429 17.8752 17.4204 17.9674 17.2563 18.1315C17.0922 18.2956 17 18.5181 17 18.7502V29.2502C17 29.4823 17.0922 29.7048 17.2563 29.8689C17.4204 30.033 17.6429 30.1252 17.875 30.1252C18.1071 30.1252 18.3296 30.033 18.4937 29.8689C18.6578 29.7048 18.75 29.4823 18.75 29.2502V18.7502C18.75 18.5181 18.6578 18.2956 18.4937 18.1315C18.3296 17.9674 18.1071 17.8752 17.875 17.8752ZM35.9941 23.3811L25.4941 12.8811C25.3717 12.7586 25.2157 12.6752 25.0459 12.6414C24.8761 12.6075 24.7 12.6249 24.5401 12.6912C24.3801 12.7574 24.2434 12.8697 24.1472 13.0137C24.0511 13.1577 23.9999 13.327 24 13.5002V17.8752H21.375C21.1429 17.8752 20.9204 17.9674 20.7563 18.1315C20.5922 18.2956 20.5 18.5181 20.5 18.7502V29.2502C20.5 29.4823 20.5922 29.7048 20.7563 29.8689C20.9204 30.033 21.1429 30.1252 21.375 30.1252H24V34.5002C23.9999 34.6734 24.0511 34.8427 24.1472 34.9867C24.2434 35.1307 24.3801 35.243 24.5401 35.3092C24.7 35.3755 24.8761 35.3929 25.0459 35.359C25.2157 35.3252 25.3717 35.2418 25.4941 35.1193L35.9941 24.6193C36.0754 24.538 36.14 24.4415 36.184 24.3353C36.228 24.2291 36.2507 24.1152 36.2507 24.0002C36.2507 23.8852 36.228 23.7714 36.184 23.6651C36.14 23.5589 36.0754 23.4624 35.9941 23.3811Z" fill="#527AB6"/>
</svg>
