<svg width="32" height="32" viewBox="0 0 32 32" fill="none" xmlns="http://www.w3.org/2000/svg">
<rect width="32" height="32" rx="10" fill="white"/>
<g clip-path="url(#clip0_6063_4054)">
<path d="M17.1064 14.9634V16.3111C16.7521 16.3288 16.3815 16.3386 16 16.3386C15.5854 16.3386 15.1842 16.3272 14.8025 16.306V15.23H14.8022V14.9675C12.6847 15.0694 11.1172 15.4356 11.1172 15.8717C11.1172 16.3869 13.3033 16.8043 16.0001 16.8043C18.6967 16.8043 20.8829 16.3869 20.8829 15.8717C20.8829 15.4291 19.27 15.059 17.1064 14.9634Z" fill="#6799E3"/>
<path d="M16 7C11.0295 7 7 11.0293 7 16C7 20.9704 11.0295 25.0001 16 25.0001C20.9705 25.0001 25 20.9704 25 16C25 11.0293 20.9705 7 16 7ZM17.1063 17.528V21.4979H14.8022V17.5226C12.3357 17.3799 10.4906 16.8062 10.4906 16.1197C10.4906 15.4335 12.3357 14.8598 14.8022 14.7169V13.6045H11.6655V11.3004H20.2434V13.6045H17.1063L17.1065 14.7116C19.619 14.8452 21.5096 15.4251 21.5096 16.1197C21.5096 16.8146 19.619 17.3945 17.1063 17.528Z" fill="#6799E3"/>
</g>
<defs>
<clipPath id="clip0_6063_4054">
<rect width="18" height="18" fill="white" transform="translate(7 7)"/>
</clipPath>
</defs>
</svg>
