<svg width="20" height="20" viewBox="0 0 20 20">
<path d="M9.99994 1.875C8.59718 1.87469 7.21824 2.23757 5.99733 2.9283C4.77642 3.61904 3.75514 4.6141 3.03289 5.81664C2.31064 7.01918 1.91204 8.38822 1.87587 9.79052C1.8397 11.1928 2.16721 12.5806 2.8265 13.8188L1.93979 16.4789C1.86634 16.6992 1.85568 16.9355 1.909 17.1615C1.96233 17.3874 2.07753 17.5941 2.2417 17.7582C2.40587 17.9224 2.61252 18.0376 2.83848 18.0909C3.06444 18.1443 3.30079 18.1336 3.52104 18.0602L6.18119 17.1734C7.27086 17.753 8.47823 18.0767 9.71168 18.12C10.9451 18.1633 12.1722 17.925 13.2998 17.4232C14.4274 16.9215 15.4259 16.1694 16.2195 15.2241C17.013 14.2789 17.5808 13.1652 17.8797 11.9678C18.1786 10.7703 18.2008 9.52047 17.9446 8.31315C17.6883 7.10584 17.1604 5.97276 16.4009 4.99993C15.6414 4.02711 14.6702 3.24009 13.5611 2.69864C12.452 2.15718 11.2341 1.87551 9.99994 1.875ZM12.4999 11.875H7.49994C7.33418 11.875 7.17521 11.8092 7.058 11.6919C6.94079 11.5747 6.87494 11.4158 6.87494 11.25C6.87494 11.0842 6.94079 10.9253 7.058 10.8081C7.17521 10.6908 7.33418 10.625 7.49994 10.625H12.4999C12.6657 10.625 12.8247 10.6908 12.9419 10.8081C13.0591 10.9253 13.1249 11.0842 13.1249 11.25C13.1249 11.4158 13.0591 11.5747 12.9419 11.6919C12.8247 11.8092 12.6657 11.875 12.4999 11.875ZM12.4999 9.375H7.49994C7.33418 9.375 7.17521 9.30915 7.058 9.19194C6.94079 9.07473 6.87494 8.91576 6.87494 8.75C6.87494 8.58424 6.94079 8.42527 7.058 8.30806C7.17521 8.19085 7.33418 8.125 7.49994 8.125H12.4999C12.6657 8.125 12.8247 8.19085 12.9419 8.30806C13.0591 8.42527 13.1249 8.58424 13.1249 8.75C13.1249 8.91576 13.0591 9.07473 12.9419 9.19194C12.8247 9.30915 12.6657 9.375 12.4999 9.375Z"/>
</svg>
