<svg width="20" height="20" viewBox="0 0 20 20" >
<path d="M16.763 4C16.874 4.00005 17.1369 4.02679 17.3029 4.16008C17.441 4.26679 17.4822 4.41361 17.496 4.52025C17.4823 4.60065 17.5098 4.84011 17.496 5.02655C17.2883 7.13463 16.3884 12.2585 15.9315 14.6201C15.7378 15.6204 15.3508 15.9545 14.9909 15.9947C14.188 16.0614 13.5788 15.4869 12.8036 14.9933C11.5853 14.2195 10.8928 13.7394 9.71615 12.9923C8.34566 12.1251 9.23127 11.645 10.0204 10.8713C10.228 10.6711 13.7725 7.56179 13.8417 7.2816C13.8513 7.23923 13.8499 7.19495 13.8379 7.15317C13.8258 7.1114 13.8031 7.07301 13.7722 7.04148C13.6891 6.97489 13.5784 7.00116 13.4815 7.01449C13.3569 7.04118 11.4185 8.28225 7.63888 10.7372C7.08515 11.0974 6.58694 11.2848 6.14394 11.2715C5.64555 11.2581 4.70417 11.0041 3.9981 10.7773C3.12589 10.5104 2.44779 10.3638 2.50317 9.89683C2.53092 9.65676 2.87654 9.41685 3.52683 9.16345C7.56927 7.46905 10.2554 6.34763 11.5983 5.81391C15.4471 4.2662 16.2369 4 16.763 4Z"/>
</svg>
